<?xml version="1.0" standalone="no"?>
<!DOCTYPE svg PUBLIC "-//W3C//DTD SVG 20010904//EN"
 "http://www.w3.org/TR/2001/REC-SVG-20010904/DTD/svg10.dtd">
<svg version="1.0" xmlns="http://www.w3.org/2000/svg"
 width="1455.000000pt" height="1455.000000pt" viewBox="0 0 1455.000000 1455.000000"
 preserveAspectRatio="xMidYMid meet">
<metadata>
Created by potrace 1.11, written by Peter Selinger 2001-2013
</metadata>
<g transform="translate(0.000000,1455.000000) scale(0.100000,-0.100000)"
fill="#000000" stroke="none">
<path d="M4257 14496 c227 -119 427 -268 608 -450 256 -257 420 -524 518 -844
l26 -84 -102 7 c-56 4 -120 9 -142 10 -359 28 -1388 27 -1710 0 -26 -3 -91 -7
-144 -10 -53 -3 -121 -7 -151 -10 -30 -2 -86 -7 -125 -10 -38 -2 -97 -7 -130
-11 -86 -8 -135 -12 -175 -14 -28 -1 -10 -10 90 -44 159 -54 203 -73 331 -136
109 -54 112 -56 196 -107 30 -18 56 -33 59 -33 2 0 10 -5 17 -10 7 -6 50 -38
97 -72 247 -177 475 -434 600 -678 18 -36 37 -72 41 -80 62 -114 143 -381 165
-545 3 -22 7 -46 10 -53 7 -21 18 -228 17 -332 0 -97 -11 -299 -17 -309 -2 -3
-7 -35 -10 -69 -4 -35 -14 -101 -22 -145 -9 -45 -18 -93 -20 -107 -3 -14 -7
-33 -10 -42 -3 -9 -6 -25 -8 -35 -2 -10 -9 -38 -16 -63 -7 -25 -14 -52 -16
-60 -1 -8 -21 -78 -44 -155 -22 -77 -42 -149 -45 -160 -2 -11 -6 -30 -9 -41
-30 -138 -40 -256 -41 -479 0 -259 5 -332 35 -519 51 -314 149 -650 270 -922
36 -81 149 -306 176 -349 13 -22 27 -47 31 -55 14 -34 171 -262 247 -360 106
-137 345 -375 472 -471 226 -171 478 -300 711 -366 l63 -18 -88 -44 c-226
-114 -494 -297 -699 -476 -553 -485 -859 -1080 -952 -1855 -32 -259 -34 -649
-6 -920 3 -25 7 -70 10 -100 3 -30 8 -66 10 -80 2 -14 7 -49 10 -79 4 -30 9
-63 11 -75 2 -12 8 -46 14 -76 21 -126 30 -170 50 -265 27 -129 25 -116 50
-215 41 -162 91 -331 141 -482 56 -167 160 -438 169 -438 3 0 15 15 27 33 13
17 34 46 49 62 14 17 42 51 62 78 20 26 39 47 42 47 3 0 20 -44 39 -97 18 -54
41 -116 51 -138 10 -22 30 -69 44 -105 84 -215 256 -567 387 -788 30 -51 59
-100 64 -110 33 -56 88 -142 91 -140 1 2 21 39 44 83 187 354 408 685 635 950
127 148 344 355 492 469 86 67 293 207 293 199 0 -3 8 1 18 9 28 25 220 123
327 168 214 89 484 165 690 194 110 16 210 27 300 33 176 13 652 5 785 -12 19
-2 69 -7 110 -10 74 -5 151 -13 200 -20 14 -2 63 -7 110 -10 47 -4 87 -8 90
-10 3 -2 50 -6 105 -10 55 -4 116 -9 135 -11 19 -1 103 -4 185 -4 349 -4 542
72 650 255 84 141 117 375 90 640 -17 164 -7 240 43 320 37 60 58 81 167 163
140 106 169 139 179 201 6 40 -18 104 -54 145 -29 33 -134 102 -198 131 l-43
18 73 22 c90 26 140 52 197 101 101 87 96 176 -19 349 -90 135 -126 227 -136
347 -6 70 -5 82 20 132 15 31 49 75 80 103 56 51 84 71 296 208 207 134 304
244 317 360 10 87 -64 244 -322 683 -17 30 -102 175 -125 217 -115 199 -257
475 -313 605 -67 155 -119 294 -143 380 -37 135 -43 157 -48 194 -4 21 -8 41
-10 45 -2 3 -7 31 -10 62 -4 31 -9 67 -11 80 -6 28 -6 239 -1 284 2 17 7 64
12 105 4 41 8 77 9 80 1 3 5 55 10 115 4 61 9 119 10 130 20 187 27 895 12
1110 -13 179 -25 317 -32 355 -3 14 -7 46 -10 72 -29 266 -105 617 -196 905
-33 106 -123 352 -138 379 -6 11 -26 57 -46 104 -37 86 -167 342 -189 370 -6
8 -20 31 -30 50 -20 37 -170 264 -209 315 -113 151 -188 241 -302 363 -337
361 -756 680 -1235 940 -64 35 -398 202 -404 202 -3 0 -33 13 -68 29 -89 42
-196 86 -318 132 -58 22 -114 44 -125 49 -107 49 -830 269 -1004 305 -9 2 -83
19 -166 39 -82 19 -231 51 -330 70 -99 20 -202 40 -230 46 -60 12 -384 67
-440 74 -22 3 -74 11 -115 16 -41 6 -91 13 -110 16 -19 2 -45 6 -58 9 -13 2
-53 7 -90 11 -37 3 -75 8 -86 10 -10 2 -44 6 -75 9 -31 3 -69 8 -86 10 -16 2
-57 7 -90 10 -33 3 -79 8 -102 11 -24 2 -62 6 -85 8 -52 6 -152 15 -233 21
-33 3 -85 7 -115 10 l-55 5 102 -54z"/>
</g>
</svg>
